<svg version="1" xmlns="http://www.w3.org/2000/svg" width="266.667" height="266.667" viewBox="0 0 200.000000 200.000000"><path d="M27.6 1.6c-.9 2.2.2 3.6 2.3 2.9 1.1-.3 2.4.2 3.2 1.2 1.3 1.6 1.2 1.7-.3.5-1.1-.9-1.8-1-2.3-.2-.3.6-1.1.8-1.6.4-.5-.3-.8 0-.7.8.2.7-.3 1.2-1 1-.8-.1-1.1.2-.7.8.4.6 1.3.9 2.1.6.8-.3 1.4.1 1.4 1 0 1.1-.5 1.4-1.6 1-1.2-.5-1.5-.2-1 1 .3.8.6 1.8.6 2 0 .2.5.4 1.1.4.5 0 .7-.6.3-1.3-.6-.9-.4-.9.6 0 1.2 1.1 1.1 1.5-.6 2.8-1.2.9-1.5 1.8-.9 2.2 1.6 1.3 1.6 3.3-.1 3.3-.8 0-1.3-.4-1-.8.3-.5-.1-.9-.8-.9-.7 0-1.3.5-1.3 1.1 0 .6-.4 1.9-.8 2.9s-.4 1.7.1 1.6c2-.3 2.6.2 1.7 1.3-.6.7-1.3 2.2-1.7 3.2-.5 1.6-.4 1.7.8.7 1.3-1.1 1.4-.9 1 1.4-.3 1.5-.1 2.4.3 2.2.5-.3 1.3.6 2 1.9.9 1.9.8 2.7-.2 3.8-.8.7-1.1 1.7-.7 2.1.4.5.1.5-.6.1-.7-.5-1.1-1.4-.8-2.2.7-1.9-.8-2.6-4-1.8-2.3.6-2.4.8-1 1.6 1.6.9 1.6 1.1 0 2.9-1.4 1.5-1.4 2.1-.4 3.4.7.8.9 1.5.6 1.5-.4 0-.1.6.6 1.4.9.9 1.5 1 2 .3.4-.6-.2-1.8-1.3-2.8-2.4-2.1-2.4-2.8.1-2.2 1.1.3 1.7.9 1.4 1.4-.3.5 0 .9.5.9.6 0 1.1 1 1.1 2.3 0 1.3.6 2.9 1.3 3.7 1 1.2.9 1.2-.5.1-1.5-1.2-1.8-1.1-1.8.3 0 1-.5 1.4-1 1.1-1.4-.9-1.3.8.2 2.3.9.9.9 1.2-.2 1.2s-1.1.3-.2 1.2c.7.7 1.2 1.6 1.2 2.1s-.7.1-1.6-.7c-.8-.9-1.2-2.1-.9-2.7.4-.6-.8-2.4-2.6-3.9-3.6-3.1-4.9-3.6-4.9-1.9 0 .5.3.8.7.6 1-.6 3.4 1.9 2.6 2.7-.4.3-.1.6.5.6s.9.7.6 1.5c-.4.8-.1 1.5.5 1.5 1.9 0 1.2 3-.6 3-1.6.1-1.6.2.2 1.6 1.4 1.1 1.6 1.8.8 2.1-2 .7-1.6 3.5.5 3.1 1.1-.3 1.6-1.2 1.5-2.8-.1-1.4.1-1.9.3-1.2.3.6 1 1 1.5.6.5-.3.4.6-.3 2.1-1 2.2-1.6 2.5-4.9 2.1-2.7-.3-3.6-.1-3.3.8.3.8 1.5 1.1 3.1.8 2.1-.4 2.5-.2 2 1.1-.4 1.1-.2 1.4.9 1 .7-.3 1.4-.1 1.4.5 0 .5-.7 1.2-1.5 1.6-1.3.5-2-.5-1.6-2.7 0-.4-.2-.7-.7-.7-.7 0-3.4 5.3-3.8 7.5-.1.5-.5 1.7-.9 2.6-1 2.5 1.4 3.4 3.3 1.3 1.6-1.7 1.6-1.7 0-.5-1 .7-1.9.8-2.2.2-.3-.5-.1-1.1.4-1.3.6-.2 1.2-1.3 1.3-2.5 0-1.2.5-2 .9-1.7.4.3.5 1.1.2 1.8-.3.8-.1 1.7.5 2 .5.4.8 1.8.5 3.1-.2 1.4 0 2.5.5 2.5.6 0 .8.7.4 1.7-.5 1.4-.8 1.3-1.4-.5-.9-2.4-2.4-2.8-3.5-1-.5.7-.3.8.7.3 1.2-.8 1.2-.6.1.8-.8.9-1.1 2.1-.7 2.7.3.5.2 1-.4 1-.5 0-1.2-.8-1.4-1.8-.4-1.6-.5-1.6-.6.1-.1 1.1-.6 1.5-1.3 1.1-.7-.4-.8-.3-.4.4s1.3 1.2 1.9 1.2c.7 0 1.8.9 2.5 2 1.1 1.8 1 2-.9 2-1.5 0-1.9-.5-1.5-1.6.3-.9.2-1.2-.5-.9-.6.4-2-.1-3.2-1.2-2.1-1.8-2.1-1.8-.7.2 2.5 3.4 3.5 4.2 5.8 4.9 1.4.5 2.2 1.5 2.1 2.9 0 2.1-.1 2.1-1-.3-.8-2-1.2-2.2-1.9-1-.5.8-.6 1.7-.2 2 1 .7.9 2.6-.1 3.7-.5.4-.8.3-.7-.2.5-2.4-.1-3.7-1.4-3.2-.8.3-1.7.1-2-.6-.3-.9-.5-.9-.5 0-.1.6.6 1.8 1.4 2.7 2 2 1.9 4.3-.3 4.9-1.4.4-1.5.5-.1.6 2.6.2 3.2 4.3 1 6.5-1.9 1.9-4.7 1.4-3.5-.6.4-.7.2-.8-.5-.4-.9.6-.9 1.2.1 2.4.7 1 1.3 1.8 1.4 2 .1.2 1.3-.2 2.6-.8 2.3-1.3 2.3-1.3.3.7-2 2-5.2 2.4-4.8.6.1-.5-.5-1-1.3-1-1.1 0-1.1.4.3 1.9 1.5 1.7 1.5 2 .3 2.8-1.1.7-1.1 1-.2 1 .7 0 1.5-.6 1.8-1.4.3-.8 1.2-1.2 2-.9 1.2.4.7 1.3-1.8 3.5-1.8 1.7-2.5 2.5-1.6 1.8 2.2-1.5 4.8.7 4.5 3.8-.1 1.9-2.7 2-2.7 0 0-.5.5-.6 1-.3s1 .1 1-.4c0-1.7-1.8-1.3-2.8.5-.5.9-1.5 1.4-2.1 1-.6-.4-.8-1.3-.5-1.9.4-.7.3-.8-.1-.4-1.9 1.7-1.3 3.5 1.1 3.2 2.7-.3 3.8 1.8 2.2 4.5-.9 1.4-.9 2.2.1 3.4 1.4 1.6.6 4-1 3.1-.5-.4-.9-.1-.9.4 0 .6.6 1.1 1.3 1.1.8 0 .8.3.1.8-.6.4-1.4 1.6-1.8 2.7-.5 1.3-1 1.5-1.3.7-.6-1.6-2-1.6-2 .1 0 1.9 2.9 1.7 4.5-.2.8-.9 1.1-1 .7-.4-.3.7-.2 1.3.2 1.3.5 0 1.4 1 2.2 2.2 1.3 2.2 1.2 2.2-.5.6-1.6-1.6-1.8-1.6-3 0-.8 1-1.4 1.2-1.4.5 0-1.2-3.7-1-4.9.3-.3.3.2.4 1.1.2.9-.1 1.6.1 1.5.7-.1.5-.8.9-1.5.9-.9-.2-1 .1-.2 1.1 1.2 1.5 4.4.9 3.4-.6-.3-.5-.1-.9.5-.9.5 0 1.2.4 1.5.8.7 1.1-1 3.6-2 2.9-.5-.3-1.8.1-2.9.9-1.1.8-1.4 1.4-.6 1.4 1.1 0 1.1.3.1 1.5s-.9 1.6.6 2.2c1.1.5 2 1.4 2.2 2.2.3 1.2 0 1.2-1.2.2-1-.8-1.6-.9-2.1-.1-.3.5 0 1 .7 1 .8 0 .9.3.3.8-1.2.8-1.4 6.7-.2 7.8.4.5 1.2.2 1.7-.6.6-.9 1-1 1-.3 0 .6-.5 1.5-1.1 1.9-.8.4-.7.9.2 1.6 1 .7.8.8-.8.5-2.2-.5-2.3-.2-2.3 5.8 0 3.8.5 6.7 1.2 7.1.7.5.8.3.3-.7-.8-1.2-.6-1.2.8 0 2.2 1.8 2.1 2.1-.3 1.6-1.6-.3-2 .2-2 2.6v2.9h200V0h-85.9C36.5 0 28.2.2 27.6 1.6zm5.9.4c-.3.5-1.2 1-1.8 1-.7 0-.6-.4.3-1C33.9.8 34.3.8 33.5 2zm-1.8 10.2c-.3.8-.6.5-.6-.6-.1-1.1.2-1.7.5-1.3.3.3.4 1.2.1 1.9zM27.5 23c.3.5.1 1-.4 1-.6 0-1.1-.5-1.1-1 0-.6.2-1 .4-1 .3 0 .8.4 1.1 1zm3.1 2.2c.4.7.3.8-.4.4s-1.2-.2-1.2.5-.3 1-.6.6c-.6-.5.3-2.7 1.1-2.7.2 0 .7.5 1.1 1.2zm83.1 13.7c5.1 2.3 7.4 5.7 8.1 11.6.7 6.6-3.9 15.4-12.9 24.4l-7 7.1H116v2.9c0 1.5-.5 4.2-1.1 6l-1.1 3.1-6.7-.2-6.6-.3-.7 10c-1.5 21.2-7.4 52.3-11.8 62.3l-2 4.5-7.3-.6c-9-.8-18-3.4-17.4-5 1.7-4.4 5.9-22 7.6-31.7 1.7-9.4 5.1-34.9 5.1-38.4 0-.5-2.2-.6-5-.3l-5 .6V82h5.5c5.3 0 5.4 0 5.9-3.3 2.1-13.4 2.8-17 4.1-21.2 2.7-9.2 9.9-17.3 17.1-19.5 5-1.5 12.7-1.1 17.1.9zM27 45.3c0 .5-.7.2-1.5-.7-.8-.8-1.5-2.3-1.5-3.3.1-1.4.4-1.3 1.5.7.8 1.4 1.4 2.9 1.5 3.3zm112.7 36.9c-.4 4.6-2.5 16.6-4.7 26.8s-4.3 20.9-4.7 23.9l-.6 5.4 3.6-.7c3-.6 3.8-.3 4.7 1.5 1 1.7.9 2.3-.1 3.1-7.9 5.2-18 7.3-22.3 4.4-4.4-2.8-4.8-7.2-2-20.4 1.4-6.4 3.6-16.9 5-23.2 1.3-6.3 2.4-15 2.5-19.2l.1-7.7 4.1-1c2.3-.5 6.6-.9 9.6-1l5.4-.1-.6 8.2zM20 92.5c0 1.2-1.9 1.2-2.3 0-.4-.9-.1-1.2.9-.8.7.3 1.4.7 1.4.8zm-4.3 15c0 .8-.7 1.5-1.5 1.5-1.2 0-1.2-.3-.2-1.5.7-.8 1.3-1.5 1.5-1.5.1 0 .2.7.2 1.5zm-.7 11.9c0 .2-.8 1-1.7 1.7-1.6 1.3-1.7 1.2-.4-.4 1.3-1.6 2.1-2.1 2.1-1.3zM3.7 163c-.1 1.1-.5 2-.9 2-.3 0-.6-.9-.5-2 .1-1.1.5-2 .9-2 .3 0 .6.9.5 2zm2.7.5c-.4.8-.8 1.5-1 1.5-.2 0-.4-.7-.4-1.5s.4-1.5 1-1.5c.5 0 .7.7.4 1.5zM4 171c0 .5-.5 1-1.1 1-.5 0-.7-.5-.4-1 .3-.6.8-1 1.1-1 .2 0 .4.4.4 1zm2.2 3.2c-.7.7-1.2.8-1.2.2 0-1.4 1.2-2.6 1.9-1.9.2.3-.1 1.1-.7 1.7zM3.5 183c.3.6-.1.7-.9.4-1.8-.7-2.1-1.4-.7-1.4.6 0 1.3.4 1.6 1zm-1.8 4.2c-.3.8-.6.5-.6-.6-.1-1.1.2-1.7.5-1.3.3.3.4 1.2.1 1.9z"/><path d="M107 49.8c-2.2 1.8-5 10.9-5 16.6v3l3.5-3.4c3.9-3.8 7.5-10.4 7.5-13.8 0-3.2-3.3-4.6-6-2.4zM24 14.1c0 .5.5.7 1 .4.6-.3 1-.8 1-1.1 0-.2-.4-.4-1-.4-.5 0-1 .5-1 1.1zM24 18c-1.2.8-1 1 .8 1 1.3 0 2-.4 1.7-1-.7-1.2-.6-1.2-2.5 0zM22.5 28c-.3.5-.3 1 .2 1 .4 0 .1.5-.7 1.1-1.2.8-1.2 1-.1.7.8-.2 1.5-1.2 1.7-2.1.3-1.9-.2-2.2-1.1-.7zM22.7 35.7c.3.7.9 1.1 1.3.8.4-.3 1.3.2 2 1s1.7 1.5 2.4 1.5c.6 0-.1-1-1.4-2.3-2.7-2.6-5.1-3.1-4.3-1zM19.3 50.4c0 .8.5 1.4 1.1 1.3.6-.1 1 .3.9 1-.2.7.4 1 1.2.6 1.3-.4 1.2-.9-.6-2.4-2.6-2.3-2.6-2.3-2.6-.5zM16 62.7c0 1.5 1.9 3.7 2.6 3.1.3-.4-.1-1.4-1-2.3-.9-.9-1.6-1.3-1.6-.8zM12.5 73c-.3.5-.1 1 .4 1 .6 0 1.1-.5 1.1-1 0-.6-.2-1-.4-1-.3 0-.8.4-1.1 1zM15.5 74c-.3.5-.1 1 .4 1 .6 0 1.1-.5 1.1-1 0-.6-.2-1-.4-1-.3 0-.8.4-1.1 1zM12 77.4c0 .2.7.9 1.5 1.6 1.3 1.1 1.4 1 .9-.4-.5-1.4-2.4-2.3-2.4-1.2zM12.6 86.5c.4.8.8 1.5 1 1.5.2 0 .4-.7.4-1.5s-.4-1.5-1-1.5c-.5 0-.7.7-.4 1.5zM9.6 97.9c-.4.7-.5 1.5-.2 1.8.9.9 1.9-.4 1.4-1.8-.4-1.1-.6-1.1-1.2 0zM10.4 112.4c.5 1.3.2 1.7-.8 1.3-1-.4-1.2 0-.8 1.5.4 1.7.6 1.8 1.9.5 1.2-1.2 1.3-1.9.3-3.3-1.1-1.8-1.1-1.8-.6 0zM4.2 135.9c.2 1-1.5 4.5-2.6 5.4-.7.6-.4.7.6.3 1-.3 2-.1 2.3.4.4.6-.2 1-1.1 1-1 0-1.5.2-1.2.5.3.4 1.8.3 3.2-.1 2.6-.6 2.7-1.9.3-1.9-.7 0-1.3-.8-1.5-1.8-.2-1 .3-1.7 1.2-1.7 2.3 0 2.8-1.7.6-2.3-1.1-.3-1.9-.2-1.8.2zM2.6 146.7c-.6 1.4-.5 1.5.5.6.7-.7 1-1.5.7-1.8-.3-.3-.9.2-1.2 1.2z"/></svg>